<?xml version="1.0" encoding="utf-8"?>
<!-- Generator: Adobe Illustrator 18.0.0, SVG Export Plug-In . SVG Version: 6.00 Build 0)  -->
<!DOCTYPE svg PUBLIC "-//W3C//DTD SVG 1.1//EN" "http://www.w3.org/Graphics/SVG/1.1/DTD/svg11.dtd">
<svg version="1.1" id="Layer_1" xmlns="http://www.w3.org/2000/svg" xmlns:xlink="http://www.w3.org/1999/xlink" x="0px" y="0px"
	 viewBox="0 0 1351.4 307" enable-background="new 0 0 1351.4 307" xml:space="preserve">
<rect x="8.7" y="-337.5" fill="#941A1D" stroke="#000000" stroke-miterlimit="10" width="1355.5" height="317.8"/>
<g>
	<path fill="#FFFFFF" d="M152.8,150c0,4-2.9-3.3-7-3.3c-4,0-6.6-0.4-6.6-4.5c0-21.2-16.2-60.3-16.2-84.1c0-32.6,29.1-58.2,60.7-58.2
		c21.2,0,40.5,15.4,40.5,37.9c4.3,37.6-58.2,47.3-58.2,47.3l-3.6,0.3c-32.2-2-26.7-49.7,3.8-63c10.9-3.8,19.5-6.3,30.4,0.2
		c31,27.8-24.9,49.2-30.7,47.8c-9.4-0.4-17.5-6.1-15.3-18c0,0,4.8-28.2,35.7-23c11.9,2.6,6.2,14.1,4.5,14.6
		c-10.3-21.3-39.5-5.4-36.7,13.1c9.2,26.4,64.4-15.7,35.4-31.7c-12.5-6.3-28.8,6.3-32.2,9.8c-13.2,13-16.3,43.9,10.3,39.6
		c13.6-0.4,41.5-16.3,41.5-37.1c0-12.9-11.1-22.8-25.3-22.8c-24,0-45.5,20-45.5,43C138.3,81.7,152.8,125.7,152.8,150z"/>
	<path fill="#FFFFFF" d="M199.3,140.9c0-16.3,11.8-31,29.1-31c10.9,0,19.4,8.5,19.4,19.4c0,13.4-10.7,24.8-22.1,30.1
		c5.2,1.9,11.8,2.9,18.2,2.9c3.1,0,5.8,2.7,5.8,5.8c0,3.1-2.7,5.8-5.8,5.8C221.8,173.9,199.3,164,199.3,140.9z M228.4,121.5
		c-9.9,0-17.5,8.5-17.5,19.4c0,4.1,1,7.2,2.7,9.7c10.5-0.6,22.5-12,22.5-21.3C236.1,124.6,233,121.5,228.4,121.5z"/>
	<path fill="#FFFFFF" d="M280.7,138.9c0,19.4-18.4,34.9-36.9,34.9c-3.1,0-5.8-2.7-5.8-5.8c0-3.1,2.7-5.8,5.8-5.8
		c12.6,0,25.2-11.6,25.2-23.3c0-3.9-1.9-6.6-1.9-11.6c0-8.5,7-13,11.8-14.4c3.9-1.2,10.7-3.1,19.2-3.1c12.6,0,22.9,8.5,25.2,24.5
		c2.9,20,8.2,27.9,21.3,27.9c3.1,0,5.8,2.7,5.8,5.8c0,3.1-2.7,5.8-5.8,5.8c-21.7,0-30.1-17.3-33-38c-1.6-11.3-6.8-14.4-13.6-14.4
		c-6.6,0-19.4,1.6-19.4,5.8C278.8,131.2,280.7,133.9,280.7,138.9z"/>
	<path fill="#FFFFFF" d="M393.3,121.5c0,0.4-0.2,0.8-0.2,1.2c-1.4,7.2-1.7,14.7-1.7,18.2c0,11.3,5.4,17.5,15.5,17.5
		c15.1,0,24.5-23.3,25.2-42.9c0.2-3.1,2.7-5.6,5.8-5.6c3.1,0,5.6,2.5,5.8,5.6c0.8,20.2,8.3,39,19.4,39c3.1,0,5.8,2.7,5.8,5.8
		c0,3.1-2.7,5.8-5.8,5.8c-13.2,0-21.2-10.7-25.4-21.5c-5,12.6-14.7,25.4-30.9,25.4c-13.2,0-22.5-7.8-25.8-19.4
		c-7.4,11.6-19.2,23.3-36.3,23.3c-3.1,0-5.8-2.7-5.8-5.8c0-3.1,2.7-5.8,5.8-5.8c20.4,0,32.2-26.6,37.1-42.5c0.8-2.5,3.1-4.1,5.6-4.1
		C391,115.6,393.3,118.6,393.3,121.5z"/>
	<path fill="#FFFFFF" d="M633.9,80.7c-0.8,0-1.7-0.2-2.5-0.6c-2.5-1.2-3.9-1.4-7.2-1.4c-17.7,0-29.1,23.9-29.1,46.6
		c0,22.5,13,36.9,34.9,36.9c3.1,0,5.8,2.7,5.8,5.8c0,3.1-2.7,5.8-5.8,5.8c-28.5,0-46.6-20.6-46.6-48.5c0-23.9,11.8-58.2,40.8-58.2
		c5.4,0,15.5,1.2,15.5,7.8C639.7,78.4,636.8,80.7,633.9,80.7z"/>
	<path fill="#FFFFFF" d="M707.6,173.9c-14,0-27-8.7-35.9-21.7c-12.2,12.2-26.8,21.7-41.7,21.7c-3.1,0-5.8-2.7-5.8-5.8
		c0-3.1,2.7-5.8,5.8-5.8c10.7,0,23.9-8,35.7-20.6c-4.3-9.3-6.6-20.2-6.6-31.8c0-30.5,8.9-58.2,29.1-58.2c15.5,0,19.4,17.3,19.4,27.2
		c0,19.8-11.8,44.8-27.7,64.4c7.6,12.2,18.2,19,27.7,19c3.1,0,5.8,2.7,5.8,5.8C713.4,171.1,710.7,173.9,707.6,173.9z M688.2,63.3
		c-7,0-17.5,14.9-17.5,46.6c0,7.8,1.4,14.9,3.5,21.5c13-17.5,21.7-38.4,21.7-52.6C696,69.3,692.1,63.3,688.2,63.3z"/>
	<path fill="#FFFFFF" d="M743.1,166.3c-11.4,4.7-24.1,7.6-35.5,7.6c-3.1,0-5.8-2.7-5.8-5.8c0-3.1,2.7-5.8,5.8-5.8
		c8.2,0,17.5-1.7,26.2-4.9c-3.1-4.7-4.9-10.3-4.9-16.5c0-16.3,11.8-31,29.1-31c10.9,0,19.4,8.5,19.4,19.4c0,12.8-9.7,23.3-21.2,30.5
		c5,1.7,11.1,2.5,17.3,2.5c3.1,0,5.8,2.7,5.8,5.8c0,3.1-2.7,5.8-5.8,5.8C762.7,173.9,751.9,171.7,743.1,166.3z M758.1,121.5
		c-9.9,0-17.5,8.5-17.5,19.4c0,5,1.6,8.7,4.3,11.8c13.2-6.8,21-15.9,21-23.5C765.8,124.6,762.7,121.5,758.1,121.5z"/>
	<path fill="#FFFFFF" d="M855.1,131.2c-2.5,0-4.7-1.7-5.4-4.1c-1.2-3.3-4.9-5.6-8.2-5.6c-13.6,0-29.1,16.7-29.1,31
		c0,6.6,2.9,9.7,7.8,9.7c12.4,0,28.3-11.6,33.4-27c0.8-2.3,2.9-4.1,5.4-4.1c3.1,0,5.8,2.7,5.8,5.8c0,14,4.1,25.2,13.6,25.2
		c3.1,0,5.8,2.7,5.8,5.8c0,3.1-2.7,5.8-5.8,5.8c-13,0-19.8-9.7-22.7-19c-9.1,11.3-22.3,19-35.5,19c-8.9,0-14.9-5.2-17.7-12.2
		c-7.6,7.2-18,12.2-28.9,12.2c-3.1,0-5.8-2.7-5.8-5.8c0-3.1,2.7-5.8,5.8-5.8c12,0,25-10.9,28.7-20c5-17.1,21.3-32.4,39.2-32.4
		c8.3,0,16.3,5.4,19,13.8c0.2,0.6,0.4,1.2,0.4,1.7C860.9,128.3,858.6,131.2,855.1,131.2z"/>
	<path fill="#FFFFFF" d="M1010.3,173.9c-1.6,0-2.9-0.6-4.1-1.7c-7.4-7.4-9.5-16.9-9.5-27.4c0-16.9-2.5-17.5-3.9-17.5
		c-3.3,0-8.2,5.4-16.5,17.9c-7.2,10.9-14,22.9-26.2,22.9c-14.2,0-15.5-14.9-15.5-29.1c0-16.1-2.5-17.5-5.8-17.5
		c-3.5,0-7.2,2.9-14.2,17.1c-9.3,18.4-16.5,35.3-36.3,35.3c-3.1,0-5.8-2.7-5.8-5.8c0-3.1,2.7-5.8,5.8-5.8c11.3,0,15.7-8.3,25.8-28.7
		c6.6-13,12.6-23.7,24.6-23.7c14.6,0,17.5,14.2,17.5,29.1c0,16.9,2.5,17.5,3.9,17.5c3.3,0,8.2-5.4,16.5-17.9
		c7.2-10.9,14-22.9,26.2-22.9c14.2,0,15.5,14.9,15.5,29.1c0,8.9,1.7,14.9,6,19.2c1.2,1.2,1.7,2.5,1.7,4.1
		C1016.1,171.1,1013.4,173.9,1010.3,173.9z"/>
</g>
<path fill="#FFFFFF" d="M435.1,57.8c0,14.8-12.1,31.2-20.2,41.4c-1.2,1.5-2.9,2.3-4.8,2.3c-3.5,0-6.2-2.9-6.2-6.2
	c0-1.5,0.6-2.9,1.5-4c8.1-10,16.2-23.9,17.3-34.1c0.4-3.1,3.1-5.6,6.2-5.6C432.4,51.6,435.1,54.5,435.1,57.8z"/>
<g>
	<path fill="#FFFFFF" d="M135.3,111.2c0.4,23.6,12.8,49-9.1,63.9c-19.1,13-50,0.3-51.8-23.7c-0.9-11.3,6-23.2,17-27
		c9.7-3.3,22.8,1.8,25.3,12.3c2,8.4-0.9,20.3-7.3,26.2c-4.1,3.8-10.2,2.7-14.3-0.2c-3.7-2.7-4.4-8.5-4.7-12.7c-0.2-3.3,0-6.6,1-9.7
		c0.9-2.6,4.8-4.6,7.1-4.4c2.9,0.2,9.2,3.3,9.3,6.9c0.1,3.4-4.3,5.9-5.9,7.8c-3.5,4.1-8.6,8.6-2.3,7.3c10.5-2,19.9-10.5,13.9-21.7
		c-4.4-8.2-18.8-10.1-26.3-6c-8.2,4.5-7.4,17.6-6.3,25.3c1.6,10.7,8.8,18.3,19.6,19.7c21.6,2.9,31.3-28.9,24.6-44.9
		c-4.2-10.1-14.9-16-25.4-17c-11.6-1-22.1,5.8-28.8,14.8c-9.8,13.3-7.9,31.1,1.3,44c9.5,13.3,26.4,19.5,42.3,17.7
		c16.1-1.9,30.9-12.2,35.5-27.4c4.8-16.2,2.7-11.4,1.6-27.6c-0.4-6.4-11.7-32-11.8-25.6L135.3,111.2z"/>
</g>
<line fill="none" stroke="#FFFFFF" stroke-width="5" stroke-miterlimit="10" x1="0" y1="216.1" x2="1351.4" y2="216.1"/>
<g>
	<path fill="#FFFFFF" d="M1098.5,169.1h36.6v4.7h-42.1V96.7h5.6V169.1z"/>
	<path fill="#FFFFFF" d="M1160.8,174.7c-3.7,0-6.5-1-8.6-3.1c-2-2-3.1-5.2-3.1-9.4v-37.1h-7.8c-0.4,0-0.7-0.1-1-0.3
		c-0.3-0.2-0.4-0.5-0.4-0.9v-2l9.3-0.7l1.3-19.4c0-0.3,0.2-0.6,0.4-0.9c0.2-0.3,0.5-0.4,0.9-0.4h2.4v20.7h17.1v3.9h-17.1V162
		c0,1.5,0.2,2.8,0.6,3.8c0.4,1.1,0.9,2,1.6,2.6c0.7,0.7,1.5,1.2,2.4,1.5s1.9,0.5,2.9,0.5c1.3,0,2.4-0.2,3.4-0.6
		c0.9-0.4,1.8-0.8,2.5-1.3c0.7-0.5,1.3-0.9,1.7-1.3c0.4-0.4,0.8-0.6,1-0.6c0.3,0,0.6,0.2,0.9,0.5l1.4,2.3c-1.4,1.5-3.1,2.8-5.3,3.7
		C1165.3,174.3,1163.1,174.7,1160.8,174.7z"/>
	<path fill="#FFFFFF" d="M1223.4,173.9c-0.9,0-1.4-0.5-1.6-1.4l-0.5-8.6c-2.4,3.3-5.2,5.9-8.4,7.8c-3.2,1.9-6.8,2.9-10.8,2.9
		c-6.7,0-11.9-2.3-15.6-6.9c-3.7-4.6-5.6-11.5-5.6-20.8c0-4,0.5-7.7,1.6-11.1c1-3.4,2.6-6.4,4.6-8.9c2-2.5,4.5-4.5,7.4-6
		c2.9-1.5,6.3-2.2,10.1-2.2c3.7,0,6.9,0.7,9.6,2c2.7,1.4,5,3.4,7,6V94.5h5.2v79.3H1223.4z M1203.5,170.4c3.6,0,6.9-0.9,9.8-2.8
		c2.9-1.9,5.5-4.4,7.8-7.7v-28.6c-2.1-3.1-4.4-5.3-7-6.5c-2.5-1.3-5.4-1.9-8.6-1.9s-6,0.6-8.4,1.7c-2.4,1.2-4.4,2.8-6,4.9
		c-1.6,2.1-2.8,4.7-3.7,7.6c-0.8,3-1.2,6.2-1.2,9.8c0,8.1,1.5,14,4.5,17.8C1193.6,168.5,1197.9,170.4,1203.5,170.4z"/>
	<path fill="#FFFFFF" d="M1279.1,173.9c-1.1,0-1.8-0.5-2-1.5l-0.8-6.9c-1.5,1.5-3,2.8-4.4,3.9c-1.5,1.2-3,2.1-4.6,2.9
		c-1.6,0.8-3.3,1.4-5.2,1.8c-1.9,0.4-3.9,0.6-6.1,0.6c-1.9,0-3.7-0.3-5.4-0.8s-3.3-1.4-4.6-2.5s-2.4-2.6-3.2-4.3
		c-0.8-1.8-1.2-3.9-1.2-6.4c0-2.3,0.7-4.4,2-6.4s3.4-3.7,6.1-5.1c2.8-1.5,6.4-2.6,10.7-3.5c4.4-0.9,9.6-1.4,15.8-1.5v-5.7
		c0-5-1.1-8.9-3.2-11.6c-2.2-2.7-5.4-4.1-9.6-4.1c-2.6,0-4.8,0.4-6.7,1.1c-1.8,0.7-3.4,1.5-4.7,2.4c-1.3,0.9-2.3,1.7-3.1,2.4
		c-0.8,0.7-1.5,1.1-2,1.1c-0.7,0-1.3-0.3-1.6-1l-0.9-1.6c2.8-2.8,5.8-5,8.9-6.4c3.1-1.5,6.7-2.2,10.6-2.2c2.9,0,5.5,0.5,7.6,1.4
		c2.2,0.9,4,2.3,5.4,4c1.4,1.7,2.5,3.8,3.2,6.3c0.7,2.5,1.1,5.2,1.1,8.2v35.3H1279.1z M1257.3,171c2.1,0,4-0.2,5.8-0.7
		c1.8-0.5,3.4-1.1,4.9-1.9c1.5-0.8,2.9-1.8,4.2-2.9c1.3-1.1,2.6-2.3,3.9-3.7v-14.1c-5.2,0.1-9.6,0.5-13.3,1.2
		c-3.7,0.6-6.8,1.5-9.2,2.6c-2.4,1.1-4.2,2.4-5.3,3.9c-1.1,1.5-1.7,3.2-1.7,5.2c0,1.8,0.3,3.4,0.9,4.7s1.4,2.4,2.4,3.3
		c1,0.9,2.1,1.5,3.4,1.9C1254.5,170.8,1255.9,171,1257.3,171z"/>
</g>
<g>
	<path fill="#FFFFFF" d="M329.7,258c-0.2,0.4-0.6,0.7-1,0.7c-0.3,0-0.8-0.2-1.3-0.7c-0.5-0.5-1.3-1-2.2-1.6
		c-0.9-0.6-2.1-1.1-3.5-1.6c-1.4-0.5-3.1-0.8-5.1-0.8c-2,0-3.8,0.3-5.4,0.9s-2.8,1.4-3.9,2.4s-1.8,2.2-2.4,3.5
		c-0.5,1.3-0.8,2.7-0.8,4.1c0,1.9,0.4,3.5,1.2,4.7c0.8,1.2,1.9,2.3,3.2,3.2c1.3,0.9,2.8,1.6,4.5,2.2c1.7,0.6,3.4,1.2,5.2,1.8
		c1.8,0.6,3.5,1.2,5.2,1.9c1.7,0.7,3.2,1.6,4.5,2.6c1.3,1.1,2.4,2.3,3.2,3.9c0.8,1.5,1.2,3.5,1.2,5.7c0,2.3-0.4,4.5-1.2,6.6
		c-0.8,2.1-2,3.9-3.5,5.4c-1.5,1.5-3.4,2.7-5.6,3.6c-2.2,0.9-4.7,1.3-7.6,1.3c-3.7,0-6.9-0.7-9.5-2c-2.7-1.3-5-3.1-7-5.3l1.1-1.7
		c0.3-0.4,0.7-0.6,1.1-0.6c0.2,0,0.5,0.2,0.9,0.5c0.4,0.3,0.8,0.7,1.3,1.2c0.5,0.5,1.2,1,1.9,1.5c0.7,0.5,1.6,1,2.6,1.5
		c1,0.5,2.1,0.8,3.4,1.2s2.7,0.5,4.3,0.5c2.2,0,4.2-0.3,5.9-1s3.2-1.6,4.4-2.7c1.2-1.2,2.1-2.5,2.7-4.1c0.6-1.6,0.9-3.3,0.9-5.1
		c0-2-0.4-3.6-1.2-4.9c-0.8-1.3-1.9-2.3-3.2-3.2c-1.3-0.9-2.8-1.6-4.5-2.2c-1.7-0.6-3.4-1.1-5.2-1.7c-1.8-0.6-3.5-1.2-5.2-1.9
		s-3.2-1.6-4.5-2.6c-1.3-1.1-2.4-2.4-3.2-4c-0.8-1.6-1.2-3.6-1.2-6c0-1.9,0.4-3.7,1.1-5.4c0.7-1.7,1.8-3.3,3.1-4.6
		c1.4-1.3,3.1-2.4,5.1-3.2c2-0.8,4.3-1.2,6.9-1.2c2.9,0,5.5,0.5,7.8,1.4c2.3,0.9,4.4,2.3,6.3,4.2L329.7,258z"/>
	<path fill="#FFFFFF" d="M377.3,251.2v3.4h-29.4v22.6h24.5v3.3h-24.5v23.3h29.4v3.4h-33.5v-55.9H377.3z"/>
	<path fill="#FFFFFF" d="M395.7,281.8V307h-4v-55.9H406c6.4,0,11.3,1.2,14.4,3.7c3.2,2.5,4.8,6.1,4.8,11c0,2.1-0.4,4.1-1.1,5.8
		c-0.7,1.8-1.8,3.3-3.2,4.6c-1.4,1.3-3,2.4-5,3.3c-1.9,0.9-4.1,1.4-6.6,1.7c0.6,0.4,1.2,0.9,1.7,1.6l19.2,24.2h-3.5
		c-0.4,0-0.8-0.1-1.1-0.2c-0.3-0.2-0.6-0.4-0.9-0.8l-17.9-22.7c-0.4-0.6-0.9-1-1.4-1.2c-0.5-0.2-1.3-0.4-2.4-0.4H395.7z
		 M395.7,278.8h9.7c2.5,0,4.7-0.3,6.7-0.9c2-0.6,3.6-1.4,5-2.5c1.4-1.1,2.4-2.4,3.1-4c0.7-1.6,1.1-3.3,1.1-5.3c0-4-1.3-6.9-3.9-8.8
		c-2.6-1.9-6.4-2.9-11.4-2.9h-10.2V278.8z"/>
	<path fill="#FFFFFF" d="M432.6,251.2h3.2c0.4,0,0.7,0.1,0.9,0.3c0.2,0.2,0.4,0.5,0.6,0.8l19,46.3c0.5,1.2,0.9,2.5,1.2,3.9
		c0.3-1.4,0.7-2.7,1.1-3.9l19-46.3c0.1-0.3,0.3-0.5,0.6-0.8s0.6-0.3,0.9-0.3h3.2L459.3,307h-3.6L432.6,251.2z"/>
	<path fill="#FFFFFF" d="M496.7,307h-4.1v-55.9h4.1V307z"/>
	<path fill="#FFFFFF" d="M555.4,297.6c0.3,0,0.5,0.1,0.7,0.3l1.6,1.7c-1.2,1.2-2.4,2.3-3.8,3.3c-1.4,1-2.9,1.8-4.5,2.5
		c-1.6,0.7-3.4,1.2-5.3,1.6c-1.9,0.4-4.1,0.6-6.4,0.6c-3.9,0-7.4-0.7-10.6-2s-6-3.3-8.3-5.8c-2.3-2.5-4.1-5.5-5.4-9
		c-1.3-3.5-1.9-7.4-1.9-11.8c0-4.2,0.7-8.1,2-11.6c1.3-3.5,3.2-6.5,5.6-9c2.4-2.5,5.3-4.5,8.6-5.8c3.4-1.4,7.1-2.1,11.1-2.1
		c2,0,3.9,0.2,5.6,0.5c1.7,0.3,3.3,0.7,4.7,1.3c1.5,0.6,2.8,1.3,4.1,2.1c1.3,0.8,2.6,1.8,3.8,2.9l-1.2,1.8c-0.2,0.3-0.5,0.5-1,0.5
		c-0.2,0-0.5-0.1-0.9-0.4c-0.4-0.3-0.8-0.6-1.4-1c-0.6-0.4-1.3-0.9-2.1-1.3c-0.8-0.5-1.8-0.9-2.9-1.3c-1.1-0.4-2.4-0.8-3.8-1
		s-3.1-0.4-4.9-0.4c-3.4,0-6.5,0.6-9.4,1.8c-2.8,1.2-5.3,2.8-7.3,5s-3.7,4.8-4.8,7.9c-1.1,3.1-1.7,6.6-1.7,10.4
		c0,3.9,0.6,7.5,1.7,10.6c1.1,3.1,2.7,5.7,4.7,7.9c2,2.1,4.4,3.8,7.1,4.9c2.7,1.1,5.7,1.7,8.9,1.7c2,0,3.8-0.1,5.3-0.4
		c1.6-0.3,3-0.7,4.3-1.2c1.3-0.5,2.5-1.2,3.7-1.9c1.1-0.8,2.3-1.7,3.4-2.7c0.1-0.1,0.3-0.2,0.4-0.3
		C555.1,297.7,555.2,297.6,555.4,297.6z"/>
	<path fill="#FFFFFF" d="M575.9,307h-4.1v-55.9h4.1V307z"/>
	<path fill="#FFFFFF" d="M643.8,279.1c0,4.3-0.6,8.2-1.9,11.7c-1.3,3.5-3.1,6.5-5.4,9c-2.3,2.5-5.1,4.4-8.4,5.8s-6.9,2-10.9,2
		c-3.9,0-7.5-0.7-10.8-2c-3.3-1.4-6.1-3.3-8.4-5.8c-2.3-2.5-4.2-5.5-5.5-9c-1.3-3.5-2-7.4-2-11.7c0-4.3,0.7-8.2,2-11.7
		c1.3-3.5,3.1-6.5,5.5-9c2.3-2.5,5.1-4.4,8.4-5.8c3.3-1.4,6.9-2.1,10.8-2.1c4,0,7.6,0.7,10.9,2c3.3,1.4,6.1,3.3,8.4,5.8
		c2.3,2.5,4.2,5.5,5.4,9C643.1,270.9,643.8,274.8,643.8,279.1z M639.6,279.1c0-3.9-0.5-7.4-1.6-10.5c-1.1-3.1-2.6-5.7-4.6-7.9
		c-2-2.2-4.3-3.8-7.1-5c-2.8-1.1-5.8-1.7-9.2-1.7c-3.3,0-6.3,0.6-9.1,1.7c-2.8,1.1-5.1,2.8-7.1,5c-2,2.2-3.5,4.8-4.6,7.9
		c-1.1,3.1-1.6,6.6-1.6,10.5c0,3.9,0.5,7.4,1.6,10.5c1.1,3.1,2.6,5.7,4.6,7.9c2,2.2,4.4,3.8,7.1,4.9c2.7,1.1,5.8,1.7,9.1,1.7
		c3.4,0,6.4-0.6,9.2-1.7c2.8-1.1,5.1-2.8,7.1-4.9c2-2.2,3.5-4.8,4.6-7.9C639.1,286.5,639.6,283,639.6,279.1z"/>
	<path fill="#FFFFFF" d="M684,258c-0.2,0.4-0.6,0.7-1,0.7c-0.3,0-0.8-0.2-1.3-0.7c-0.5-0.5-1.3-1-2.2-1.6c-0.9-0.6-2.1-1.1-3.5-1.6
		c-1.4-0.5-3.1-0.8-5.1-0.8c-2,0-3.8,0.3-5.4,0.9c-1.5,0.6-2.8,1.4-3.9,2.4s-1.8,2.2-2.4,3.5c-0.5,1.3-0.8,2.7-0.8,4.1
		c0,1.9,0.4,3.5,1.2,4.7c0.8,1.2,1.9,2.3,3.2,3.2c1.3,0.9,2.8,1.6,4.5,2.2c1.7,0.6,3.4,1.2,5.2,1.8c1.8,0.6,3.5,1.2,5.2,1.9
		c1.7,0.7,3.2,1.6,4.5,2.6c1.3,1.1,2.4,2.3,3.2,3.9c0.8,1.5,1.2,3.5,1.2,5.7c0,2.3-0.4,4.5-1.2,6.6c-0.8,2.1-2,3.9-3.5,5.4
		c-1.5,1.5-3.4,2.7-5.6,3.6c-2.2,0.9-4.7,1.3-7.6,1.3c-3.7,0-6.9-0.7-9.5-2s-5-3.1-7-5.3l1.1-1.7c0.3-0.4,0.7-0.6,1.1-0.6
		c0.2,0,0.5,0.2,0.9,0.5s0.8,0.7,1.3,1.2c0.5,0.5,1.2,1,1.9,1.5c0.7,0.5,1.6,1,2.6,1.5c1,0.5,2.1,0.8,3.4,1.2
		c1.3,0.3,2.7,0.5,4.3,0.5c2.2,0,4.2-0.3,5.9-1s3.2-1.6,4.4-2.7s2.1-2.5,2.7-4.1c0.6-1.6,0.9-3.3,0.9-5.1c0-2-0.4-3.6-1.2-4.9
		c-0.8-1.3-1.9-2.3-3.2-3.2c-1.3-0.9-2.8-1.6-4.5-2.2c-1.7-0.6-3.4-1.1-5.2-1.7c-1.8-0.6-3.5-1.2-5.2-1.9c-1.7-0.7-3.2-1.6-4.5-2.6
		c-1.3-1.1-2.4-2.4-3.2-4c-0.8-1.6-1.2-3.6-1.2-6c0-1.9,0.4-3.7,1.1-5.4c0.7-1.7,1.8-3.3,3.1-4.6c1.4-1.3,3.1-2.4,5.1-3.2
		c2-0.8,4.3-1.2,6.9-1.2c2.9,0,5.5,0.5,7.8,1.4c2.3,0.9,4.4,2.3,6.3,4.2L684,258z"/>
	<path fill="#FFFFFF" d="M718.9,307h-4.1v-55.9h4.1V307z"/>
	<path fill="#FFFFFF" d="M739.9,251.3c0.2,0.1,0.4,0.3,0.7,0.6l36.2,48.4c-0.1-0.8-0.1-1.6-0.1-2.3v-46.9h3.6V307h-1.9
		c-0.6,0-1.1-0.3-1.5-0.8l-36.3-48.5c0.1,0.8,0.1,1.5,0.1,2.3v47H737v-55.9h2C739.4,251.2,739.7,251.2,739.9,251.3z"/>
	<path fill="#FFFFFF" d="M833.2,251.2v3.4h-19.6V307h-4v-52.4h-19.7v-3.4H833.2z"/>
	<path fill="#FFFFFF" d="M876.3,251.2v3.4h-29.4v22.6h24.5v3.3h-24.5v23.3h29.4v3.4h-33.5v-55.9H876.3z"/>
	<path fill="#FFFFFF" d="M913.5,304.4c1.9,0,3.7-0.1,5.3-0.3c1.6-0.2,3-0.5,4.4-0.9s2.6-0.9,3.9-1.4c1.2-0.6,2.5-1.2,3.7-1.9v-15
		H920c-0.3,0-0.5-0.1-0.7-0.3c-0.2-0.2-0.3-0.4-0.3-0.6v-2.2h15.4v19.9c-1.4,1-2.8,1.8-4.3,2.6c-1.5,0.8-3.1,1.4-4.8,1.9
		c-1.7,0.5-3.6,0.9-5.5,1.2c-2,0.3-4.1,0.4-6.5,0.4c-4,0-7.7-0.7-11-2c-3.3-1.4-6.2-3.3-8.6-5.8c-2.4-2.5-4.2-5.5-5.5-9
		c-1.3-3.5-2-7.4-2-11.8c0-4.3,0.7-8.2,2-11.7c1.3-3.5,3.2-6.5,5.6-9c2.4-2.5,5.4-4.4,8.8-5.8c3.5-1.4,7.3-2,11.6-2
		c2.1,0,4.1,0.1,5.9,0.4c1.8,0.3,3.5,0.7,5,1.3c1.6,0.6,3,1.3,4.3,2.1s2.6,1.8,3.9,2.9l-1.1,1.7c-0.2,0.4-0.6,0.6-1,0.6
		c-0.2,0-0.5-0.1-0.7-0.2c-0.4-0.2-1-0.5-1.7-1.1c-0.8-0.6-1.8-1.2-3-1.8c-1.3-0.6-2.9-1.2-4.8-1.7s-4.3-0.8-7-0.8
		c-3.6,0-6.9,0.6-9.8,1.7c-2.9,1.2-5.4,2.8-7.5,5c-2.1,2.2-3.7,4.8-4.8,7.9c-1.1,3.1-1.7,6.6-1.7,10.5c0,3.9,0.6,7.5,1.7,10.6
		c1.1,3.1,2.7,5.8,4.8,8s4.5,3.8,7.3,5C906.9,303.8,910.1,304.4,913.5,304.4z"/>
	<path fill="#FFFFFF" d="M953.8,281.8V307h-4v-55.9H964c6.4,0,11.3,1.2,14.4,3.7c3.2,2.5,4.8,6.1,4.8,11c0,2.1-0.4,4.1-1.1,5.8
		c-0.7,1.8-1.8,3.3-3.2,4.6c-1.4,1.3-3,2.4-5,3.3s-4.1,1.4-6.6,1.7c0.6,0.4,1.2,0.9,1.7,1.6l19.2,24.2h-3.5c-0.4,0-0.8-0.1-1.1-0.2
		c-0.3-0.2-0.6-0.4-0.9-0.8l-17.9-22.7c-0.4-0.6-0.9-1-1.4-1.2c-0.5-0.2-1.3-0.4-2.4-0.4H953.8z M953.8,278.8h9.7
		c2.5,0,4.7-0.3,6.7-0.9c2-0.6,3.6-1.4,5-2.5c1.4-1.1,2.4-2.4,3.1-4c0.7-1.6,1.1-3.3,1.1-5.3c0-4-1.3-6.9-3.9-8.8
		c-2.6-1.9-6.4-2.9-11.4-2.9h-10.2V278.8z"/>
	<path fill="#FFFFFF" d="M1040.5,307h-3.1c-0.4,0-0.7-0.1-0.9-0.3c-0.2-0.2-0.4-0.5-0.6-0.8l-6.6-16.2h-27.4l-6.6,16.2
		c-0.1,0.3-0.3,0.5-0.6,0.8s-0.6,0.3-0.9,0.3h-3.1l22.9-55.9h4L1040.5,307z M1003.1,286.7h25l-11.4-28.2c-0.2-0.4-0.4-1-0.6-1.5
		c-0.2-0.6-0.4-1.2-0.6-1.8c-0.2,0.6-0.4,1.2-0.6,1.8c-0.2,0.6-0.4,1.1-0.6,1.6L1003.1,286.7z"/>
	<path fill="#FFFFFF" d="M1053.3,303.6h26.5v3.4h-30.5v-55.9h4V303.6z"/>
	<path fill="#FFFFFF" d="M1123.1,251.2v3.4h-29.4v22.6h24.5v3.3h-24.5v23.3h29.4v3.4h-33.5v-55.9H1123.1z"/>
	<path fill="#FFFFFF" d="M1163.4,258c-0.2,0.4-0.6,0.7-1,0.7c-0.3,0-0.8-0.2-1.3-0.7c-0.5-0.5-1.3-1-2.2-1.6
		c-0.9-0.6-2.1-1.1-3.5-1.6c-1.4-0.5-3.1-0.8-5.1-0.8c-2,0-3.8,0.3-5.4,0.9c-1.5,0.6-2.8,1.4-3.9,2.4s-1.8,2.2-2.4,3.5
		c-0.5,1.3-0.8,2.7-0.8,4.1c0,1.9,0.4,3.5,1.2,4.7c0.8,1.2,1.9,2.3,3.2,3.2c1.3,0.9,2.8,1.6,4.5,2.2c1.7,0.6,3.4,1.2,5.2,1.8
		c1.8,0.6,3.5,1.2,5.2,1.9c1.7,0.7,3.2,1.6,4.5,2.6c1.3,1.1,2.4,2.3,3.2,3.9c0.8,1.5,1.2,3.5,1.2,5.7c0,2.3-0.4,4.5-1.2,6.6
		c-0.8,2.1-2,3.9-3.5,5.4c-1.5,1.5-3.4,2.7-5.6,3.6c-2.2,0.9-4.7,1.3-7.6,1.3c-3.7,0-6.9-0.7-9.5-2s-5-3.1-7-5.3l1.1-1.7
		c0.3-0.4,0.7-0.6,1.1-0.6c0.2,0,0.5,0.2,0.9,0.5s0.8,0.7,1.3,1.2c0.5,0.5,1.2,1,1.9,1.5c0.7,0.5,1.6,1,2.6,1.5
		c1,0.5,2.1,0.8,3.4,1.2c1.3,0.3,2.7,0.5,4.3,0.5c2.2,0,4.2-0.3,5.9-1s3.2-1.6,4.4-2.7s2.1-2.5,2.7-4.1c0.6-1.6,0.9-3.3,0.9-5.1
		c0-2-0.4-3.6-1.2-4.9c-0.8-1.3-1.9-2.3-3.2-3.2c-1.3-0.9-2.8-1.6-4.5-2.2c-1.7-0.6-3.4-1.1-5.2-1.7c-1.8-0.6-3.5-1.2-5.2-1.9
		c-1.7-0.7-3.2-1.6-4.5-2.6c-1.3-1.1-2.4-2.4-3.2-4c-0.8-1.6-1.2-3.6-1.2-6c0-1.9,0.4-3.7,1.1-5.4c0.7-1.7,1.8-3.3,3.1-4.6
		c1.4-1.3,3.1-2.4,5.1-3.2c2-0.8,4.3-1.2,6.9-1.2c2.9,0,5.5,0.5,7.8,1.4c2.3,0.9,4.4,2.3,6.3,4.2L1163.4,258z"/>
</g>
</svg>
